<svg width="13" height="13" viewBox="0 0 13 13" fill="none" xmlns="http://www.w3.org/2000/svg">
<path d="M12.8858 5.70246C12.8382 5.57971 12.7669 5.46756 12.6758 5.37246L7.67582 0.372461C7.58258 0.279222 7.47189 0.205262 7.35007 0.154801C7.22825 0.104341 7.09768 0.0783691 6.96582 0.0783691C6.69952 0.0783691 6.44412 0.184157 6.25582 0.372461C6.16258 0.465699 6.08862 0.57639 6.03816 0.698212C5.9877 0.820034 5.96173 0.950602 5.96173 1.08246C5.96173 1.34876 6.06752 1.60416 6.25582 1.79246L9.55582 5.08246H1.96582C1.7006 5.08246 1.44625 5.18782 1.25871 5.37535C1.07118 5.56289 0.96582 5.81724 0.96582 6.08246C0.96582 6.34768 1.07118 6.60203 1.25871 6.78957C1.44625 6.9771 1.7006 7.08246 1.96582 7.08246H9.55582L6.25582 10.3725C6.16209 10.4654 6.0877 10.576 6.03693 10.6979C5.98616 10.8197 5.96002 10.9504 5.96002 11.0825C5.96002 11.2145 5.98616 11.3452 6.03693 11.467C6.0877 11.5889 6.16209 11.6995 6.25582 11.7925C6.34878 11.8862 6.45938 11.9606 6.58124 12.0114C6.7031 12.0621 6.83381 12.0883 6.96582 12.0883C7.09783 12.0883 7.22854 12.0621 7.3504 12.0114C7.47226 11.9606 7.58286 11.8862 7.67582 11.7925L12.6758 6.79246C12.7669 6.69736 12.8382 6.58521 12.8858 6.46246C12.9858 6.219 12.9858 5.94592 12.8858 5.70246Z" fill="#1D6FA3"/>
</svg>
