<svg width="36" height="37" viewBox="0 0 36 37" fill="none" xmlns="http://www.w3.org/2000/svg">
<rect y="0.951416" width="36" height="36" rx="18" fill="white"/>
<path d="M21.0271 11.6527V11.6494H21.8711L22.1794 11.711C22.385 11.751 22.5717 11.8034 22.7394 11.8682C22.9071 11.9331 23.0694 12.0087 23.2263 12.0951C23.3832 12.1816 23.5255 12.2697 23.6532 12.3593C23.7798 12.448 23.8934 12.542 23.9941 12.6414C24.0936 12.7419 24.2489 12.7678 24.4599 12.7192C24.6709 12.6705 24.8981 12.603 25.1416 12.5166C25.385 12.4301 25.6258 12.3329 25.8638 12.2248C26.1019 12.1168 26.2469 12.0481 26.2988 12.019C26.3497 11.9887 26.3768 11.9725 26.38 11.9703L26.3832 11.9655L26.3995 11.9574L26.4157 11.9493L26.4319 11.9412L26.4482 11.9331L26.4514 11.9282L26.4563 11.925L26.4612 11.9217L26.4644 11.9169L26.4806 11.912L26.4968 11.9087L26.4936 11.9331L26.4887 11.9574L26.4806 11.9817L26.4725 12.006L26.4644 12.0222L26.4563 12.0384L26.4482 12.0627C26.4427 12.0789 26.4373 12.1005 26.4319 12.1276C26.4265 12.1546 26.3751 12.2626 26.2777 12.4517C26.1803 12.6408 26.0586 12.8326 25.9125 13.0271C25.7665 13.2216 25.6355 13.3686 25.5198 13.468C25.4029 13.5685 25.3255 13.6387 25.2876 13.6787C25.2498 13.7198 25.2038 13.7576 25.1497 13.7922L25.0685 13.8457L25.0523 13.8538L25.0361 13.8619L25.0328 13.8667L25.028 13.87L25.0231 13.8732L25.0198 13.8781L25.0036 13.8862L24.9874 13.8943L24.9841 13.8991L24.9793 13.9024L24.9744 13.9056L24.9711 13.9105L24.9679 13.9153L24.963 13.9186L24.9582 13.9218L24.9549 13.9267H25.0361L25.4905 13.8294C25.7935 13.7646 26.083 13.6863 26.3589 13.5944L26.7971 13.4485L26.8458 13.4323L26.8702 13.4242L26.8864 13.4161L26.9026 13.408L26.9188 13.3999L26.9351 13.3918L26.9675 13.387L27 13.3837V13.4161L26.9919 13.4194L26.9838 13.4242L26.9805 13.4291L26.9757 13.4323L26.9708 13.4356L26.9675 13.4404L26.9643 13.4453L26.9594 13.4485L26.9546 13.4518L26.9513 13.4567L26.9481 13.4615L26.9432 13.4648L26.9351 13.481L26.927 13.4972L26.9221 13.5004C26.9199 13.5037 26.8512 13.5955 26.716 13.776C26.5807 13.9575 26.5077 14.0493 26.4968 14.0515C26.486 14.0547 26.4709 14.071 26.4514 14.1001C26.433 14.1304 26.3183 14.2509 26.1073 14.4616C25.8963 14.6723 25.6897 14.8597 25.4873 15.024C25.2839 15.1893 25.1811 15.3925 25.1789 15.6334C25.1757 15.8733 25.1632 16.1446 25.1416 16.4471C25.1199 16.7497 25.0794 17.0765 25.0198 17.4277C24.9603 17.7789 24.8684 18.176 24.7439 18.619C24.6195 19.0621 24.468 19.4943 24.2894 19.9157C24.1109 20.3371 23.9243 20.7153 23.7295 21.0503C23.5347 21.3853 23.3562 21.6689 23.1939 21.9012C23.0316 22.1335 22.8666 22.3524 22.6988 22.5577C22.5311 22.763 22.319 22.9942 22.0626 23.2514C21.8051 23.5075 21.6644 23.648 21.6406 23.6728C21.6157 23.6966 21.5097 23.7852 21.3225 23.9386C21.1363 24.0931 20.9362 24.2477 20.7219 24.4022C20.5088 24.5556 20.3129 24.6837 20.1344 24.7863C19.9558 24.889 19.7405 25.0062 19.4884 25.1381C19.2373 25.271 18.9657 25.3941 18.6736 25.5076C18.3814 25.6211 18.073 25.7264 17.7484 25.8237C17.4238 25.9209 17.11 25.9966 16.807 26.0506C16.5041 26.1046 16.1605 26.1505 15.7764 26.1884L15.2002 26.2451V26.2532H14.1452V26.2451L14.0072 26.237C13.9152 26.2316 13.8395 26.2262 13.78 26.2208C13.7205 26.2154 13.4959 26.1856 13.1064 26.1316C12.7169 26.0776 12.4112 26.0236 12.1894 25.9695C11.9675 25.9155 11.6375 25.8129 11.1993 25.6616C10.761 25.5103 10.3861 25.3574 10.0745 25.2029C9.76394 25.0494 9.56917 24.9522 9.49017 24.9111C9.41226 24.8711 9.32462 24.8215 9.22723 24.762L9.08115 24.6729L9.07792 24.668L9.07304 24.6648L9.06817 24.6615L9.06492 24.6567L9.04869 24.6486L9.03246 24.6405L9.02923 24.6356L9.02435 24.6323L9.01948 24.6291L9.01623 24.6242L9.013 24.6194L9.00812 24.6161H9V24.5837L9.01623 24.587L9.03246 24.5918L9.1055 24.5999C9.15419 24.6053 9.28675 24.6134 9.50316 24.6242C9.71958 24.6351 9.9495 24.6351 10.193 24.6242C10.4364 24.6134 10.6853 24.5891 10.9396 24.5513C11.1939 24.5135 11.4941 24.4487 11.8404 24.3568C12.1867 24.265 12.5048 24.1558 12.7948 24.0294C13.0837 23.9019 13.2893 23.8068 13.4116 23.7441C13.5327 23.6825 13.7178 23.568 13.9666 23.4005L14.3399 23.1493L14.3432 23.1444L14.3481 23.1412L14.3529 23.1379L14.3562 23.1331L14.3594 23.1282L14.3643 23.125L14.3692 23.1217L14.3724 23.1169L14.3886 23.112L14.4049 23.1088L14.4081 23.0926L14.413 23.0763L14.4179 23.0731L14.4211 23.0682L14.2913 23.0601C14.2047 23.0547 14.1208 23.0493 14.0397 23.0439C13.9585 23.0385 13.8314 23.0142 13.6583 22.971C13.4851 22.9278 13.2985 22.8629 13.0983 22.7765C12.8981 22.69 12.7033 22.5874 12.514 22.4685C12.3246 22.3497 12.1877 22.2508 12.1033 22.1719C12.02 22.0941 11.9118 21.9839 11.7787 21.8413C11.6467 21.6976 11.532 21.55 11.4346 21.3988C11.3372 21.2475 11.2442 21.073 11.1555 20.8752L11.0207 20.5802L11.0126 20.5559L11.0045 20.5316L10.9996 20.5154L10.9964 20.4992L11.0207 20.5024L11.0451 20.5073L11.2236 20.5316C11.3427 20.5478 11.5293 20.5532 11.7836 20.5478C12.0379 20.5424 12.2137 20.5316 12.3111 20.5154C12.4085 20.4992 12.468 20.4884 12.4896 20.483L12.5221 20.4749L12.5627 20.4668L12.6032 20.4587L12.6065 20.4538L12.6114 20.4506L12.6162 20.4473L12.6195 20.4425L12.587 20.4344L12.5546 20.4263L12.5221 20.4182L12.4896 20.4101L12.4572 20.402C12.4355 20.3966 12.3977 20.3857 12.3436 20.3695C12.2895 20.3533 12.1434 20.2939 11.9053 20.1912C11.6673 20.0886 11.4779 19.9886 11.3372 19.8914C11.1962 19.7939 11.0618 19.6872 10.9347 19.5721C10.8081 19.4554 10.6691 19.3052 10.5176 19.1215C10.3661 18.9378 10.2308 18.7244 10.1118 18.4813C9.99279 18.2381 9.90352 18.0058 9.844 17.7843C9.78472 17.5641 9.74561 17.3389 9.72716 17.1116L9.69793 16.7713L9.71416 16.7745L9.73039 16.7794L9.74662 16.7875L9.76285 16.7956L9.77908 16.8037L9.79531 16.8118L10.0469 16.9253C10.2146 17.0009 10.4229 17.0657 10.6718 17.1198C10.9207 17.1738 11.0694 17.2035 11.1181 17.2089L11.1912 17.217H11.3372L11.334 17.2121L11.3291 17.2089L11.3243 17.2057L11.321 17.2008L11.3178 17.1959L11.3129 17.1927L11.308 17.1894L11.3048 17.1846L11.2885 17.1765L11.2723 17.1684L11.2691 17.1635L11.2642 17.1603L11.2593 17.157L11.2561 17.1522L11.2399 17.1441L11.2236 17.136L11.2204 17.1311C11.2171 17.1289 11.1706 17.0944 11.0808 17.0274C10.9921 16.9593 10.899 16.8712 10.8016 16.7632C10.7042 16.6551 10.6069 16.5416 10.5095 16.4228C10.4119 16.3037 10.325 16.1762 10.2498 16.0419C10.174 15.9068 10.094 15.735 10.0096 15.5265C9.92625 15.319 9.86294 15.1099 9.81966 14.8992C9.77639 14.6885 9.75204 14.4805 9.74662 14.2752C9.74121 14.0699 9.74662 13.8943 9.76285 13.7484C9.77908 13.6025 9.81154 13.4377 9.86023 13.254C9.90893 13.0704 9.97927 12.8759 10.0712 12.6705L10.2092 12.3626L10.2173 12.3383L10.2254 12.314L10.2303 12.3107L10.2335 12.3059L10.2368 12.301L10.2417 12.2978L10.2465 12.301L10.2498 12.3059L10.253 12.3107L10.2579 12.314L10.2628 12.3172L10.266 12.3221L10.2693 12.3269L10.2741 12.3302L10.2822 12.3464L10.2904 12.3626L10.2952 12.3658L10.2985 12.3707L10.5176 12.6138C10.6637 12.7759 10.8368 12.9569 11.037 13.1568C11.2372 13.3567 11.3481 13.4604 11.3697 13.468C11.3914 13.4766 11.4184 13.5015 11.4509 13.5426C11.4833 13.5825 11.5915 13.6782 11.7755 13.8294C11.9594 13.9807 12.2002 14.1563 12.4977 14.3562C12.7953 14.5561 13.1253 14.7533 13.4878 14.9478C13.8503 15.1423 14.2399 15.3179 14.6564 15.4746C15.073 15.6313 15.3652 15.7339 15.5329 15.7826C15.7006 15.8312 15.9874 15.8933 16.3931 15.969C16.7989 16.0446 17.1046 16.0932 17.3102 16.1148C17.5158 16.1364 17.6565 16.1489 17.7322 16.1521L17.8458 16.1554L17.8426 16.131L17.8377 16.1067L17.8052 15.9041C17.7836 15.7691 17.7728 15.58 17.7728 15.3368C17.7728 15.0937 17.7917 14.8695 17.8296 14.6642C17.8675 14.4589 17.9243 14.2509 18 14.0402C18.0757 13.8294 18.1499 13.6603 18.2224 13.5328C18.296 13.4064 18.3923 13.2622 18.5113 13.1001C18.6303 12.938 18.7845 12.7705 18.9739 12.5976C19.1632 12.4247 19.3796 12.2707 19.6231 12.1357C19.8665 12.0006 20.0911 11.8979 20.2967 11.8277C20.5023 11.7575 20.6754 11.7115 20.8161 11.6899C20.9567 11.6683 21.0271 11.6559 21.0271 11.6527Z" fill="#3A3D43"/>
</svg>
